<svg width="165" height="41" viewBox="0 0 165 41" fill="none" xmlns="http://www.w3.org/2000/svg">
<path fill-rule="evenodd" clip-rule="evenodd" d="M14.02 30.0905L15.8844 31.9471L18.8738 29.7966L16.6195 27.5528C17.5971 26.1104 18.1681 24.3723 18.1681 22.5021C18.1681 17.5081 14.1009 13.4604 9.08417 13.4604C4.0672 13.4604 0 17.5081 0 22.5021C0 27.4954 4.0672 31.5432 9.08417 31.5432C10.9044 31.5432 12.5986 31.0086 14.02 30.0905ZM3.78236 22.5021C3.78236 19.5875 6.15627 17.2251 9.08416 17.2251C12.012 17.2251 14.386 19.5875 14.386 22.5021C14.386 25.4163 12.012 27.7787 9.08416 27.7787C6.15627 27.7787 3.78236 25.4163 3.78236 22.5021ZM131.209 20.9398L131.753 18.0521C131.753 18.0521 127.552 16.7829 124.137 19.1349V30.686L127.764 30.686L127.763 21.3008C129.214 20.2176 131.209 20.9398 131.209 20.9398ZM41.6316 21.7126C41.3315 22.5282 41.1816 23.3962 41.1816 24.317C41.1816 25.2698 41.3074 26.1541 41.5589 26.9697C41.8105 27.7855 42.2072 28.492 42.7518 29.0897C43.2951 29.6871 43.9889 30.1599 44.8329 30.507C45.6765 30.854 46.6823 31.0275 47.8506 31.0275C48.613 31.0275 49.311 30.9631 49.9438 30.8335C50.5768 30.7043 51.1041 30.5514 51.5263 30.3734L51.0152 27.4181C50.593 27.5959 50.1304 27.7245 49.6277 27.8057C49.1246 27.8867 48.6538 27.9268 48.2159 27.9268C46.9824 27.9268 46.1185 27.6118 45.6236 26.9817C45.1289 26.3521 44.8815 25.4637 44.8815 24.317C44.8815 23.2349 45.1451 22.3631 45.6724 21.7006C46.1995 21.0381 46.9986 20.7072 48.0698 20.7072C48.5725 20.7072 49.0271 20.7555 49.4331 20.8528C49.8383 20.9492 50.212 21.0624 50.5529 21.1919L51.3071 18.309C50.7721 18.0824 50.2197 17.9089 49.6519 17.7878C49.084 17.6667 48.459 17.6059 47.7779 17.6059C46.7393 17.6059 45.8143 17.7842 45.0031 18.1391C44.1912 18.4945 43.5019 18.9749 42.9339 19.5809C42.366 20.1867 41.9322 20.8973 41.6316 21.7126ZM85.2271 20.1775C82.8698 20.1775 82.6882 22.7041 82.6882 22.7041L87.7656 22.7041C87.7656 22.7041 87.5844 20.1775 85.2271 20.1775ZM82.6882 25.2312L90.8484 25.2312C91.2112 23.0652 90.8484 17.6509 85.4083 17.6509C81.7813 17.6509 79.2431 20.1775 79.2431 24.1484C79.2431 29.2016 82.5069 31.0065 86.1338 31.0065C88.6723 31.0065 90.4856 30.2848 90.4856 30.2848L90.1233 27.3971C90.1233 27.3971 88.3093 27.939 86.4966 27.939C82.8698 27.939 82.6882 25.2312 82.6882 25.2312ZM115.677 20.1775C113.32 20.1775 113.138 22.7041 113.138 22.7041L118.216 22.7041C118.216 22.7041 118.034 20.1775 115.677 20.1775ZM113.138 25.2312L121.298 25.2312C121.661 23.0652 121.298 17.6509 115.859 17.6509C112.232 17.6509 109.693 20.1775 109.693 24.1484C109.693 29.2016 112.957 31.0065 116.584 31.0065C119.123 31.0065 120.935 30.2848 120.935 30.2848L120.573 27.3971C120.573 27.3971 118.76 27.939 116.946 27.939C113.32 27.939 113.138 25.2312 113.138 25.2312Z" fill="white"/>
<path d="M38.3937 30.6875L34.7673 30.6875V17.944L38.3937 17.944V30.6875Z" fill="white"/>
<path d="M32.201 17.9459L32.2072 29.4902C32.2072 29.4902 30.3876 30.9397 26.3981 30.9397C22.7719 30.9397 20.7773 29.1348 20.7773 25.1639V17.9455L24.4036 17.9455V25.1639C24.4036 27.6912 25.6731 27.8713 26.7607 27.8713C27.8492 27.8713 28.5752 27.3299 28.5752 27.3299L28.5741 17.9459L32.201 17.9459Z" fill="white"/>
<path d="M57.7157 22.519C58.0727 22.1337 58.4407 21.7324 58.8217 21.3151C59.2027 20.8978 59.5719 20.4841 59.9283 20.0747C60.2849 19.6647 60.6214 19.2755 60.9375 18.9062C61.2538 18.5372 61.5252 18.2156 61.7521 17.9423L66.065 17.9423C65.2041 18.9264 64.3649 19.8652 63.5452 20.7595C62.7258 21.6537 61.8294 22.5764 60.8555 23.5274C61.3424 23.964 61.8451 24.4861 62.3651 25.0926C62.8839 25.6997 63.3871 26.3264 63.8736 26.9739C64.3612 27.621 64.8069 28.268 65.2125 28.9153C65.6186 29.5626 65.9595 30.1528 66.235 30.6864L62.0648 30.6864C61.8054 30.2655 61.5094 29.8005 61.1781 29.29C60.8461 28.7801 60.4936 28.2698 60.121 27.7602C59.7483 27.2506 59.3552 26.7607 58.9423 26.291C58.5294 25.822 58.1201 25.425 57.7157 25.1007V30.6864L54.0889 30.6864V14.7596L57.7157 14.1227V22.519Z" fill="white"/>
<path d="M68.3394 14.7608L71.9662 14.1237V17.8791L75.5553 17.8791V20.8834L71.9662 20.8834V25.3648C71.9662 26.1244 72.1002 26.7302 72.3677 27.1817C72.6354 27.6342 73.1746 27.8601 73.9867 27.8601C74.3761 27.8601 74.7776 27.8238 75.1914 27.7512C75.605 27.6784 75.9824 27.578 76.3233 27.4482L76.8341 30.259C76.3962 30.4368 75.9092 30.5899 75.3737 30.7194C74.8387 30.848 74.1811 30.9124 73.4022 30.9124C72.4119 30.9124 71.5929 30.7795 70.9442 30.513C70.2948 30.2465 69.7759 29.875 69.3861 29.3987C68.9966 28.9227 68.7245 28.345 68.5707 27.6664C68.416 26.9881 68.3394 26.2371 68.3394 25.4136V14.7608Z" fill="white"/>
<path d="M98.6194 30.9287C97.5639 30.9128 96.7085 30.7994 96.0511 30.5901C95.3942 30.38 94.8742 30.085 94.4939 29.7051C94.1117 29.3261 93.8522 28.8654 93.7146 28.3243C93.5765 27.7834 93.5077 27.1733 93.5077 26.4949V14.7594L97.1344 14.1223V25.768C97.1344 26.0919 97.1586 26.3822 97.2076 26.641C97.2561 26.8991 97.3495 27.1172 97.4874 27.2946C97.6252 27.4729 97.8239 27.618 98.0839 27.7308C98.3432 27.8441 98.6925 27.9165 99.1305 27.9485L98.6194 30.9287Z" fill="white"/>
<path d="M106.811 30.9287C105.755 30.9128 104.9 30.7994 104.243 30.5901C103.585 30.38 103.065 30.085 102.685 29.7051C102.303 29.3261 102.043 28.8654 101.906 28.3243C101.768 27.7834 101.699 27.1733 101.699 26.4949V14.7594L105.326 14.1223V25.768C105.326 26.0919 105.35 26.3822 105.399 26.641C105.448 26.8991 105.541 27.1172 105.679 27.2946C105.817 27.4729 106.015 27.618 106.275 27.7308C106.535 27.8441 106.884 27.9165 107.322 27.9485L106.811 30.9287Z" fill="white"/>
<mask id="mask0" mask-type="alpha" maskUnits="userSpaceOnUse" x="136" y="11" width="24" height="30">
<path fill-rule="evenodd" clip-rule="evenodd" d="M136.853 14.1115C136.853 13.319 146.882 11.6089 153.607 11.6089C156.524 11.6089 158.819 11.9305 159.407 12.7878C162.435 16.7683 141.116 41.7406 139.339 40.9831C137.915 40.6043 150.705 24.7094 148.573 18.2736C147.509 14.8704 136.853 15.2489 136.853 14.1115Z" fill="white"/>
</mask>
<g mask="url(#mask0)">
<path d="M131.003 46.8234L165.551 46.8234V5.78558L131.003 5.78558V46.8234Z" fill="#DB4638"/>
</g>
<mask id="mask1" mask-type="alpha" maskUnits="userSpaceOnUse" x="154" y="0" width="11" height="10">
<path fill-rule="evenodd" clip-rule="evenodd" d="M154.967 4.5955C154.967 2.05551 157.035 -4.76837e-06 159.584 -4.76837e-06C162.135 -4.76837e-06 164.201 2.05551 164.201 4.5955C164.201 7.13677 162.135 9.19229 159.584 9.19229C157.035 9.19229 154.967 7.13677 154.967 4.5955Z" fill="white"/>
</mask>
<g mask="url(#mask1)">
<path d="M149.116 14.6339L170.052 14.6339V-5.44165L149.116 -5.44165V14.6339Z" fill="#DB4638"/>
</g>
</svg>
